<svg width="16" height="16" viewBox="0 0 16 16" fill="none" xmlns="http://www.w3.org/2000/svg">
<g clip-path="url(#clip0_102_69)">
<g clip-path="url(#clip1_102_69)">
<circle cx="8" cy="8" r="8" fill="#3A41CB"/>
<path d="M5.68 6.4C5.48904 6.4 5.30591 6.32414 5.17088 6.18912C5.03586 6.05409 4.96 5.87096 4.96 5.68C4.96 5.48904 5.03586 5.30591 5.17088 5.17088C5.30591 5.03586 5.48904 4.96 5.68 4.96C5.87096 4.96 6.05409 5.03586 6.18912 5.17088C6.32414 5.30591 6.4 5.48904 6.4 5.68C6.4 5.87096 6.32414 6.05409 6.18912 6.18912C6.05409 6.32414 5.87096 6.4 5.68 6.4ZM13.3168 8.5984L8.9968 4.2784C8.824 4.1056 8.584 4 8.32 4H4.96C4.4272 4 4 4.4272 4 4.96V8.32C4 8.584 4.1056 8.824 4.2832 8.9968L8.5984 13.3168C8.776 13.4896 9.016 13.6 9.28 13.6C9.544 13.6 9.784 13.4896 9.9568 13.3168L13.3168 9.9568C13.4944 9.784 13.6 9.544 13.6 9.28C13.6 9.0112 13.4896 8.7712 13.3168 8.5984Z" fill="white"/>
</g>
</g>
<defs>
<clipPath id="clip0_102_69">
<rect width="16" height="16" fill="white"/>
</clipPath>
<clipPath id="clip1_102_69">
<rect width="16" height="16" fill="white"/>
</clipPath>
</defs>
</svg>
